<?xml version="1.0" standalone="no"?> <!DOCTYPE svg PUBLIC "-//W3C//DTD SVG 1.0//EN" "http://www.w3.org/TR/2001/REC-SVG-20010904/DTD/svg10.dtd" > <svg xmlns="http://www.w3.org/2000/svg" width="100%" height="100%">
<defs >
<font id="ShareTech-Regular" horiz-adv-x="454" ><font-face
    font-family="Share Tech"
    units-per-em="1000"
    panose-1="2 0 5 6 4 0 0 2 0 4"
    ascent="885"
    descent="-242"
    alphabetic="0" />
<missing-glyph horiz-adv-x="502" d="M65 0V700H437V0H65ZM140 72H362V628H140V72Z" />
<glyph unicode=" " glyph-name="space" horiz-adv-x="260" />
<glyph unicode="!" glyph-name="exclam" horiz-adv-x="250" d="M175 0H75V100H175V0ZM167 208H82V700H167V208Z" />
<glyph unicode="&quot;" glyph-name="quotedbl" horiz-adv-x="360" d="M55 700H150V610L130 453H75L55 610V700ZM210 700H305V610L285 453H230L210 610V700Z" />
<glyph unicode="#" glyph-name="numbersign" horiz-adv-x="470" d="M273 255V455H193V255H273ZM423 180H353V0H273V180H193V0H113V180H43V255H113V455H43V530H113V700H193V530H273V700H353V530H423V455H353V255H423V180Z" />
<glyph unicode="$" glyph-name="dollar" horiz-adv-x="470" d="M277 -110H192V0H87V76H229Q266 76 289 98T312 151V235Q312 265 297 283T250 302H230Q156 302 113 345T70 472V500Q70 638 192 664V780H277V670H383V594H240Q203 594 180 572T157 519V453Q157 422
177 402T229 381H249Q320 381 359 340T399 216V170Q399 32 277 5V-110Z" />
<glyph unicode="%" glyph-name="percent" horiz-adv-x="856" d="M590 700L351 0H267L512 700H590ZM351 412Q351 349 319 317T229 284H211Q153 284 121 316T89 412V572Q89 635 121 667T211 700H229Q287 700 319 668T351 572V412ZM281 401V583Q281 608 268 624T229
640H211Q185 640 172 624T159 583V401Q159 376 172 360T211 344H229Q255 344 268 360T281 401ZM765 128Q765 65 733 33T643 0H625Q567 0 535 32T503 128V288Q503 351 535 383T625 416H643Q701 416 733 384T765 288V128ZM695 117V299Q695 324 682 340T643 356H625Q599
356 586 340T573 299V117Q573 92 586 76T625 60H643Q669 60 682 76T695 117Z" />
<glyph unicode="&amp;" glyph-name="ampersand" horiz-adv-x="507" d="M403 0H239Q149 0 109 37T69 158V284Q69 371 134 407Q79 446 79 523V544Q79 700 251 700H357V625H239Q201 625 184 608T166 553V513Q166 480 187 460T239 440H482V365H403V0ZM229 365Q196
365 176 346T156 293V148Q156 110 174 93T230 75H322V365H229Z" />
<glyph unicode="&apos;" glyph-name="quotesingle" horiz-adv-x="205" d="M55 700H150V610L130 453H75L55 610V700Z" />
<glyph unicode="(" glyph-name="parenleft" horiz-adv-x="320" d="M60 505Q60 621 89 693T172 820H260Q191 736 168 678T145 507V193Q145 81 168 23T260 -120H172Q119 -65 90 7T60 195V505Z" />
<glyph unicode=")" glyph-name="parenright" horiz-adv-x="320" d="M260 505V195Q260 79 231 7T148 -120H60Q129 -36 152 22T175 193V507Q175 619 152 677T60 820H148Q201 765 230 693T260 505Z" />
<glyph unicode="*" glyph-name="asterisk" horiz-adv-x="480" d="M440 546L293 515L399 392L327 340L239 482L148 340L78 393L185 515L40 547L67 627L208 570L195 722H285L272 570L415 625L440 546Z" />
<glyph unicode="+" glyph-name="plus" horiz-adv-x="550" d="M465 275H315V118H235V275H84V350H235V508H315V350H465V275Z" />
<glyph unicode="," glyph-name="comma" horiz-adv-x="230" d="M65 100H165V0L103 -140H25L65 0V100Z" />
<glyph unicode="-" glyph-name="hyphen" horiz-adv-x="495" d="M410 275H85V350H410V275Z" />
<glyph unicode="." glyph-name="period" horiz-adv-x="230" d="M165 0H65V100H165V0Z" />
<glyph unicode="/" glyph-name="slash" horiz-adv-x="325" d="M320 810L84 -110H5L241 810H320Z" />
<glyph unicode="0" glyph-name="zero" horiz-adv-x="470" d="M408 170Q408 87 363 44T240 0H230Q153 0 108 43T62 170V530Q62 614 107 657T230 700H240Q318 700 363 657T408 530V170ZM323 151V549Q323 580 300 602T240 625H230Q194 625 171 603T147 549V151Q147
120 170 98T230 75H240Q276 75 299 97T323 151Z" />
<glyph unicode="1" glyph-name="one" horiz-adv-x="470" d="M397 0H92V75H213V621L82 569V650L203 700H298V75H397V0Z" />
<glyph unicode="2" glyph-name="two" horiz-adv-x="470" d="M383 0H63V88L213 316Q258 384 267 406T276 479V549Q276 580 253 602T193 624H83V700H183Q270 700 316 658T363 530V488Q363 418 352 389T292 285L154 76H383V0Z" />
<glyph unicode="3" glyph-name="three" horiz-adv-x="470" d="M372 158Q372 75 332 38T202 0H84V75H211Q249 75 267 92T285 148V251Q285 284 265 303T212 323H115V398H202Q233 398 254 418T275 471V553Q275 591 258 608T202 625H84V700H190Q362 700 362 544V481Q362
404 307 365Q372 329 372 242V158Z" />
<glyph unicode="4" glyph-name="four" horiz-adv-x="470" d="M422 156H352V0H267V156H69V242L168 700H249L155 229H267V457H352V229H422V156Z" />
<glyph unicode="5" glyph-name="five" horiz-adv-x="470" d="M374 158Q374 75 334 38T204 0H83V75H213Q251 75 269 92T287 148V275Q287 308 267 327T214 347H93V700H359V625H178V422H209Q286 422 330 384T374 266V158Z" />
<glyph unicode="6" glyph-name="six" horiz-adv-x="470" d="M405 170Q405 88 360 44T247 0H222Q154 0 109 44T64 170V530Q64 700 242 700H357V624H232Q195 624 172 602T149 549V440H237Q323 440 364 402T405 280V170ZM247 365H149V151Q149 119 170 97T227 75H242Q278
75 299 97T320 151V299Q320 365 247 365Z" />
<glyph unicode="7" glyph-name="seven" horiz-adv-x="470" d="M68 625V700H373V603L212 0H123L290 625H68Z" />
<glyph unicode="8" glyph-name="eight" horiz-adv-x="470" d="M414 158Q414 75 374 38T244 0H226Q136 0 96 37T56 158V242Q56 329 121 365Q68 402 68 481V544Q68 700 230 700H240Q402 700 402 544V481Q402 402 349 365Q414 329 414 242V158ZM327 251Q327 284 307
303T254 323H216Q183 323 163 304T143 251V148Q143 75 209 75H253Q291 75 309 92T327 148V251ZM244 625H218Q155 625 155 553V471Q155 439 173 420T220 398H244Q275 398 295 418T315 471V553Q315 591 299 608T244 625Z" />
<glyph unicode="9" glyph-name="nine" horiz-adv-x="470" d="M65 530Q65 612 110 656T223 700H248Q316 700 361 656T406 530V170Q406 0 228 0H123V76H238Q275 76 298 98T321 151V260H233Q147 260 106 298T65 420V530ZM223 335H321V549Q321 581 300 603T243 625H228Q192
625 171 603T150 549V401Q150 335 223 335Z" />
<glyph unicode=":" glyph-name="colon" horiz-adv-x="230" d="M165 0H65V100H165V0ZM165 400H65V500H165V400Z" />
<glyph unicode=";" glyph-name="semicolon" horiz-adv-x="230" d="M65 100H165V0L103 -140H25L65 0V100ZM165 400H65V500H165V400Z" />
<glyph unicode="&lt;" glyph-name="less" horiz-adv-x="550" d="M465 105L85 280V385L465 564V472L155 336L465 199V105Z" />
<glyph unicode="=" glyph-name="equal" horiz-adv-x="550" d="M465 175H85V250H465V175ZM465 375H85V450H465V375Z" />
<glyph unicode="&gt;" glyph-name="greater" horiz-adv-x="550" d="M465 280L85 105V199L401 336L85 472V564L465 385V280Z" />
<glyph unicode="?" glyph-name="question" horiz-adv-x="328" d="M298 518Q298 461 288 438T227 358L179 304V208H94V329L147 390Q194 444 203 460T213 509V559Q213 624 140 624H30V700H130Q298 700 298 550V518ZM187 0H87V100H187V0Z" />
<glyph unicode="@" glyph-name="at" horiz-adv-x="815" d="M561 0H275Q188 0 142 42T95 170V520Q95 606 142 653T275 700H540Q626 700 673 653T720 520V250Q720 115 593 115Q564 115 533 132T488 184Q452 144 375 144Q241 144 241 275V393Q241 473 285 506T418
539H552V217Q552 201 564 191T596 180Q637 180 637 230V540Q637 577 613 602T550 627H265Q227 627 203 603T178 540V150Q178 119 203 96T265 73H561V0ZM321 279Q321 212 396 212T472 264V472H407Q362 472 342 454T321 389V279Z" />
<glyph unicode="A" glyph-name="A" horiz-adv-x="500" d="M332 252L250 634L169 252H332ZM475 0H386L348 177H153L114 0H25L194 700H309L475 0Z" />
<glyph unicode="B" glyph-name="B" horiz-adv-x="520" d="M445 158Q445 72 406 36T275 0H85V700H263Q352 700 393 664T435 544V487Q435 410 380 371Q445 335 445 248V158ZM348 477V553Q348 591 331 608T275 625H172V404H275Q306 404 327 424T348 477ZM358 148V257Q358
290 338 309T285 329H172V75H284Q322 75 340 92T358 148Z" />
<glyph unicode="C" glyph-name="C" horiz-adv-x="417" d="M377 0H255Q168 0 122 42T75 170V530Q75 615 121 657T255 700H377V624H245Q208 624 185 602T162 549V151Q162 120 185 98T245 76H377V0Z" />
<glyph unicode="D" glyph-name="D" horiz-adv-x="526" d="M451 158Q451 72 412 36T281 0H85V700H269Q359 700 405 664T451 544V158ZM364 148V553Q364 586 344 605T291 625H172V75H290Q328 75 346 92T364 148Z" />
<glyph unicode="E" glyph-name="E" horiz-adv-x="473" d="M413 0H85V700H413V627H172V398H388V325H172V73H413V0Z" />
<glyph unicode="F" glyph-name="F" horiz-adv-x="458" d="M413 627H172V388H388V315H172V0H85V700H413V627Z" />
<glyph unicode="G" glyph-name="G" horiz-adv-x="490" d="M420 0H255Q168 0 122 42T75 170V530Q75 615 121 657T255 700H390V624H245Q208 624 185 602T162 549V151Q162 120 185 98T245 76H337V293H253V368H420V0Z" />
<glyph unicode="H" glyph-name="H" horiz-adv-x="550" d="M465 0H378V322H172V0H85V700H172V396H378V700H465V0Z" />
<glyph unicode="I" glyph-name="I" horiz-adv-x="317" d="M272 0H45V73H115V627H45V700H272V627H202V73H272V0Z" />
<glyph unicode="J" glyph-name="J" horiz-adv-x="380" d="M305 170Q305 85 259 43T125 0H30V76H135Q172 76 195 98T218 151V625H67V700H305V170Z" />
<glyph unicode="K" glyph-name="K" horiz-adv-x="492" d="M172 0H85V700H172V398L357 700H452L262 394L462 0H364L208 318L172 258V0Z" />
<glyph unicode="L" glyph-name="L" horiz-adv-x="410" d="M395 0H85V700H172V76H395V0Z" />
<glyph unicode="M" glyph-name="M" horiz-adv-x="630" d="M545 0H462V628L355 235H272L165 628V0H85V700H226L317 342L407 700H545V0Z" />
<glyph unicode="N" glyph-name="N" horiz-adv-x="547" d="M462 0H319L166 626V0H85V700H227L381 74V700H462V0Z" />
<glyph unicode="O" glyph-name="O" horiz-adv-x="544" d="M469 170Q469 85 423 43T289 0H255Q168 0 122 42T75 170V530Q75 615 121 657T255 700H289Q376 700 422 658T469 530V170ZM382 151V549Q382 580 359 602T299 624H245Q208 624 185 602T162 549V151Q162 120
185 98T245 76H299Q336 76 359 98T382 151Z" />
<glyph unicode="P" glyph-name="P" horiz-adv-x="491" d="M436 430Q436 272 266 272H172V0H85V700H264Q436 700 436 544V430ZM349 420V553Q349 591 332 608T276 625H172V347H276Q314 347 331 364T349 420Z" />
<glyph unicode="Q" glyph-name="Q" horiz-adv-x="544" d="M289 0H255Q168 0 122 42T75 170V530Q75 615 121 657T255 700H289Q376 700 422 658T469 530V170Q469 110 445 73L520 -2L463 -59L386 19Q347 0 289 0ZM382 151V549Q382 580 359 602T299 624H245Q208 624
185 602T162 549V151Q162 120 185 98T245 76H299Q337 76 359 95T382 151Z" />
<glyph unicode="R" glyph-name="R" horiz-adv-x="520" d="M172 290V0H85V700H264Q436 700 436 544V448Q436 335 346 307L485 0H390L261 290H172ZM349 438V553Q349 591 332 608T276 625H172V365H276Q314 365 331 382T349 438Z" />
<glyph unicode="S" glyph-name="S" horiz-adv-x="439" d="M384 170Q384 85 338 43T204 0H72V76H214Q251 76 274 98T297 151V255Q297 285 282 303T235 322H215Q141 322 98 365T55 492V530Q55 615 101 657T235 700H368V624H225Q188 624 165 602T142 549V473Q142
442 162 422T214 401H234Q305 401 344 360T384 236V170Z" />
<glyph unicode="T" glyph-name="T" horiz-adv-x="425" d="M410 624H256V0H169V624H15V700H410V624Z" />
<glyph unicode="U" glyph-name="U" horiz-adv-x="535" d="M455 170Q455 85 409 43T275 0H260Q173 0 127 42T80 170V700H167V151Q167 120 190 98T250 76H285Q322 76 345 98T368 151V700H455V170Z" />
<glyph unicode="V" glyph-name="V" horiz-adv-x="473" d="M438 700L291 0H172L35 700H123L233 88L352 700H438Z" />
<glyph unicode="W" glyph-name="W" horiz-adv-x="589" d="M539 700L505 0H369L302 304L229 0H99L65 700H142L172 55L262 405H344L435 55L466 700H539Z" />
<glyph unicode="X" glyph-name="X" horiz-adv-x="496" d="M461 0H363L249 268L129 0H35L205 362L50 700H145L250 459L358 700H451L293 363L461 0Z" />
<glyph unicode="Y" glyph-name="Y" horiz-adv-x="491" d="M289 0H199V325L20 700H116L248 409L380 700H471L289 325V0Z" />
<glyph unicode="Z" glyph-name="Z" horiz-adv-x="436" d="M381 74V0H45V88L303 626H68V700H391V612L134 74H381Z" />
<glyph unicode="[" glyph-name="bracketleft" horiz-adv-x="325" d="M275 -120H85V820H275V745H165V-45H275V-120Z" />
<glyph unicode="\" glyph-name="backslash" horiz-adv-x="325" d="M241 -110L5 810H84L320 -110H241Z" />
<glyph unicode="]" glyph-name="bracketright" horiz-adv-x="325" d="M240 -120H50V-45H160V745H50V820H240V-120Z" />
<glyph unicode="^" glyph-name="asciicircum" horiz-adv-x="487" d="M442 420H351L247 700L133 420H45L189 760H303L442 420Z" />
<glyph unicode="_" glyph-name="underscore" horiz-adv-x="510" d="M507 -170H3V-95H507V-170Z" />
<glyph unicode="`" glyph-name="grave" horiz-adv-x="303" d="M265 580H179L52 715H161L265 580Z" />
<glyph unicode="a" glyph-name="a" horiz-adv-x="470" d="M430 0H375Q345 0 320 30Q297 0 259 0H190Q114 0 80 30T45 135V155Q45 310 191 310H295V360Q295 425 220 425H85V500H210Q297 500 338 462T380 340V100Q380 70 430 70V0ZM249 75Q282 75 290 93Q295 107
295 125V235H190Q164 235 147 218T130 175V125Q130 99 142 87T180 75H249Z" />
<glyph unicode="b" glyph-name="b" horiz-adv-x="496" d="M426 160Q426 76 385 38T256 0H80V700H165V480Q195 500 240 500H256Q344 500 385 463T426 340V160ZM230 425Q197 425 181 408T165 370V75H266Q341 75 341 140V360Q341 425 266 425H230Z" />
<glyph unicode="c" glyph-name="c" horiz-adv-x="399" d="M349 0H240Q152 0 111 37T70 160V340Q70 424 111 462T240 500H349V425H230Q155 425 155 360V140Q155 75 230 75H349V0Z" />
<glyph unicode="d" glyph-name="d" horiz-adv-x="501" d="M421 0H341V23Q308 0 261 0H240Q152 0 111 37T70 160V340Q70 424 111 462T240 500H336V700H421V0ZM271 75Q304 75 320 92T336 130V425H230Q155 425 155 360V140Q155 75 230 75H271Z" />
<glyph unicode="e" glyph-name="e" horiz-adv-x="466" d="M369 0H240Q152 0 111 37T70 160V340Q70 426 107 463T230 500H257Q401 500 401 345V215H155V140Q155 75 230 75H369V0ZM155 360V290H318V365Q318 391 301 408T258 425H220Q184 425 170 409T155 360Z" />
<glyph unicode="f" glyph-name="f" horiz-adv-x="306" d="M311 625H215Q199 625 190 617T180 595V500H301V425H180V0H95V425H30V500H95V590Q95 641 124 670T199 700H311V625Z" />
<glyph unicode="g" glyph-name="g" horiz-adv-x="494" d="M444 -35Q444 -170 277 -170H75V-95H287Q323 -95 341 -81T359 -45V-13Q359 37 287 37H120V175Q55 210 55 315V340Q55 424 96 462T225 500H429V315Q429 240 388 198T279 155H205V112H277Q444 112 444 -23V-35ZM279
230Q310 230 326 250T344 292V425H215Q140 425 140 360V295Q140 230 215 230H279Z" />
<glyph unicode="h" glyph-name="h" horiz-adv-x="501" d="M165 0H80V700H165V480Q195 500 240 500H266Q347 500 386 462T426 340V0H341V360Q341 390 324 407T276 425H230Q198 425 182 409T165 373V0Z" />
<glyph unicode="i" glyph-name="i" horiz-adv-x="245" d="M170 610H75V700H170V610ZM165 0H80V500H165V0Z" />
<glyph unicode="j" glyph-name="j" horiz-adv-x="245" d="M170 610H75V700H170V610ZM-45 -95H46Q62 -95 71 -87T81 -65V500H166V-60Q166 -111 137 -140T62 -170H-45V-95Z" />
<glyph unicode="k" glyph-name="k" horiz-adv-x="464" d="M165 0H80V700H165V326L315 500H422L253 307L429 0H330L193 247L165 214V0Z" />
<glyph unicode="l" glyph-name="l" horiz-adv-x="250" d="M215 0H160Q126 0 101 24T75 100V700H160V105Q160 89 168 82T195 75H215V0Z" />
<glyph unicode="m" glyph-name="m" horiz-adv-x="720" d="M165 0H80V500H160V476Q191 500 240 500H246Q337 500 376 454Q413 500 479 500H485Q566 500 605 462T645 340V0H560V360Q560 390 543 407T495 425H469Q438 425 423 407T405 367V0H320V360Q320 390 303
407T256 425H230Q198 425 182 409T165 373V0Z" />
<glyph unicode="n" glyph-name="n" horiz-adv-x="501" d="M165 0H80V500H160V476Q191 500 240 500H266Q347 500 386 462T426 340V0H341V360Q341 390 324 407T276 425H230Q197 425 181 408T165 370V0Z" />
<glyph unicode="o" glyph-name="o" horiz-adv-x="493" d="M423 160Q423 76 382 38T253 0H240Q153 0 112 38T70 160V340Q70 424 111 462T240 500H253Q340 500 381 462T423 340V160ZM338 140V360Q338 425 263 425H230Q155 425 155 360V140Q155 75 230 75H263Q338
75 338 140Z" />
<glyph unicode="p" glyph-name="p" horiz-adv-x="496" d="M165 -170H80V500H160V476Q191 500 240 500H256Q344 500 385 463T426 340V160Q426 76 385 38T256 0H165V-170ZM230 425Q197 425 181 408T165 370V75H266Q341 75 341 140V360Q341 425 266 425H230Z" />
<glyph unicode="q" glyph-name="q" horiz-adv-x="501" d="M421 -170H336V20Q305 0 261 0H240Q152 0 111 37T70 160V340Q70 424 111 462T240 500H421V-170ZM271 75Q304 75 320 92T336 130V425H230Q155 425 155 360V140Q155 75 230 75H271Z" />
<glyph unicode="r" glyph-name="r" horiz-adv-x="333" d="M165 0H80V500H160V473Q193 500 240 500H313V420H230Q197 420 181 398T165 355V0Z" />
<glyph unicode="s" glyph-name="s" horiz-adv-x="399" d="M344 125Q344 0 194 0H65V75H204Q259 75 259 120V173Q259 218 216 218H199Q129 218 95 248T60 345V374Q60 441 98 470T210 500H324V425H200Q175 425 160 414T145 380V344Q145 321 158 310T193 299H207Q344
299 344 170V125Z" />
<glyph unicode="t" glyph-name="t" horiz-adv-x="311" d="M286 0H190Q139 0 112 33T85 120V425H20V500H85V620H170V500H286V425H170V115Q170 75 215 75H286V0Z" />
<glyph unicode="u" glyph-name="u" horiz-adv-x="489" d="M409 0H329V23Q296 0 249 0H235Q154 0 115 38T75 160V500H160V140Q160 110 177 93T225 75H259Q291 75 306 91T324 127V500H409V0Z" />
<glyph unicode="v" glyph-name="v" horiz-adv-x="462" d="M427 500L293 0H170L35 500H126L234 71L339 500H427Z" />
<glyph unicode="w" glyph-name="w" horiz-adv-x="670" d="M630 500L531 0H400L337 271L268 0H140L40 500H128L209 64L298 410H383L466 64L547 500H630Z" />
<glyph unicode="x" glyph-name="x" horiz-adv-x="464" d="M429 0H329L234 185L134 0H40L185 258L52 500H150L236 335L323 500H416L281 262L429 0Z" />
<glyph unicode="y" glyph-name="y" horiz-adv-x="463" d="M159 -175Q138 -175 102 -169V-96Q130 -100 154 -100Q182 -100 194 -55L210 0H190L35 500H127L243 87L341 500H428L283 -44Q265 -112 240 -143T159 -175Z" />
<glyph unicode="z" glyph-name="z" horiz-adv-x="403" d="M343 74V0H45V80L262 426H65V500H353V411L137 74H343Z" />
<glyph unicode="{" glyph-name="braceleft" horiz-adv-x="325" d="M40 295V405Q80 405 95 417T111 469V698Q111 765 136 792T220 820H265V750H234Q210 750 200 743T189 713V469Q189 419 165 387T104 349Q140 345 164 313T189 231V-13Q189 -35 199 -42T234 -50H265V-120H220Q161
-120 136 -93T111 2V231Q111 270 96 282T40 295Z" />
<glyph unicode="|" glyph-name="bar" horiz-adv-x="290" d="M185 -110H105V810H185V-110Z" />
<glyph unicode="}" glyph-name="braceright" horiz-adv-x="325" d="M286 405V295Q246 295 231 283T215 231V2Q215 -65 190 -92T106 -120H61V-50H92Q116 -50 126 -43T137 -13V231Q137 281 161 313T222 349Q186 355 162 387T137 469V713Q137 735 127 742T92 750H61V820H106Q165
820 190 793T215 698V469Q215 430 230 418T286 405Z" />
<glyph unicode="~" glyph-name="asciitilde" horiz-adv-x="510" d="M182 381H197Q209 381 263 361T328 341H338Q349 341 406 368L425 377V297Q354 262 337 262H322Q316 262 260 282T192 302H182Q169 302 106 275L85 266V346Q163 381 182 381Z" />
</font>
</defs>
</svg>
